<svg width="63" height="36" viewBox="0 0 63 36" fill="none" xmlns="http://www.w3.org/2000/svg">
<g clip-path="url(#clip0_281_927)">
<path d="M7.45815 12.1554C7.45815 9.554 9.57417 7.43143 12.173 7.43143H27.8867V0.821899H12.173C5.91364 0.821899 0.821899 5.92343 0.821899 12.1949V14.8505H7.47047V12.1578H7.45815V12.1554Z" fill="#F50537"/>
<path d="M12.1735 29.0074C9.57722 29.0074 7.45874 26.8873 7.45874 24.2835V21.5242H0.810181V24.323C0.810181 30.5944 5.90191 35.6959 12.1612 35.6959H27.8749V28.9951H12.1735V29.0074Z" fill="#00FD90"/>
<path d="M51.1249 7.44632C53.7212 7.44632 55.8397 9.56641 55.8397 12.1702V14.8777H62.4883V12.222C62.4883 5.95066 57.3965 0.849121 51.1372 0.849121H34.5663V7.45867H51.1249V7.44632Z" fill="#EFFF00"/>
<path d="M55.8364 24.2835C55.8364 26.8849 53.7204 29.0075 51.1216 29.0075H34.5507V35.7083H51.1216C57.3809 35.7083 62.4727 30.6068 62.4727 24.3354V21.5366H55.8241V24.2811H55.8364V24.2835Z" fill="white"/>
</g>
<defs>
<clipPath id="clip0_281_927">
<rect width="63" height="36" fill="white"/>
</clipPath>
</defs>
</svg>
