<svg width="24" height="24" viewBox="0 0 24 24" fill="none" xmlns="http://www.w3.org/2000/svg">
<path fill-rule="evenodd" clip-rule="evenodd" d="M4.9948 4.9948C5.79183 4.19777 6.87283 3.75 8 3.75H16C17.1272 3.75 18.2082 4.19777 19.0052 4.9948C19.8022 5.79183 20.25 6.87283 20.25 8V16C20.25 17.1272 19.8022 18.2082 19.0052 19.0052C18.2082 19.8022 17.1272 20.25 16 20.25H8C6.87283 20.25 5.79183 19.8022 4.9948 19.0052C4.19777 18.2082 3.75 17.1272 3.75 16V8C3.75 6.87283 4.19777 5.79183 4.9948 4.9948ZM8 2.25C6.47501 2.25 5.01247 2.8558 3.93414 3.93414C2.8558 5.01247 2.25 6.47501 2.25 8V16C2.25 17.525 2.8558 18.9875 3.93414 20.0659C5.01247 21.1442 6.47501 21.75 8 21.75H16C17.525 21.75 18.9875 21.1442 20.0659 20.0659C21.1442 18.9875 21.75 17.525 21.75 16V8C21.75 6.47501 21.1442 5.01247 20.0659 3.93414C18.9875 2.8558 17.525 2.25 16 2.25H8ZM7.75 10C7.75 9.58579 7.41421 9.25 7 9.25C6.58579 9.25 6.25 9.58579 6.25 10V17C6.25 17.4142 6.58579 17.75 7 17.75C7.41421 17.75 7.75 17.4142 7.75 17V10ZM7.56495 7.50353C7.84358 7.19704 7.821 6.7227 7.51451 6.44407C7.20802 6.16544 6.73368 6.18802 6.45505 6.49452L6.44505 6.50552C6.16642 6.81201 6.189 7.28635 6.49549 7.56498C6.80198 7.84361 7.27632 7.82102 7.55495 7.51453L7.56495 7.50353ZM11.75 10C11.75 9.58581 11.4142 9.25002 11 9.25002C10.5858 9.25002 10.25 9.58581 10.25 10V13.75V17C10.25 17.4142 10.5858 17.75 11 17.75C11.4142 17.75 11.75 17.4142 11.75 17V13.75C11.75 13.0336 12.0273 12.5421 12.4176 12.2168C12.8252 11.8772 13.3972 11.6875 14 11.6875C14.6028 11.6875 15.1748 11.8772 15.5824 12.2168C15.9727 12.5421 16.25 13.0336 16.25 13.75V17C16.25 17.4142 16.5858 17.75 17 17.75C17.4142 17.75 17.75 17.4142 17.75 17V13.75C17.75 12.5915 17.2773 11.6767 16.5426 11.0645C15.8252 10.4666 14.8972 10.1875 14 10.1875C13.2204 10.1875 12.4177 10.3982 11.75 10.8456V10Z" fill="#151515"/>
</svg>
