<svg width="144" height="36" viewBox="0 0 144 36" fill="none" xmlns="http://www.w3.org/2000/svg">
<path d="M34.9452 6.35667H34.892C33.1944 2.49037 29.376 0 25.127 0H10.6721C4.79634 0 0 4.79035 0 10.6926C0 13.5155 1.06923 16.1658 3.005 18.1612C5.00918 20.2225 7.66706 21.3725 10.5251 21.4258H25.393C26.594 21.4258 27.8507 21.1974 29.0264 20.7556V25.2668C29.0264 27.3814 27.3034 29.1077 25.1928 29.1077H2.97966V36H25.1928C26.9437 36 28.5855 35.5989 30.0677 34.8094C30.9089 34.355 31.6969 33.8066 32.4444 33.0958C34.6487 31.0472 35.8649 28.2496 35.8649 25.2134V10.7332C35.8649 9.32684 35.5837 7.9103 35.0364 6.53183L34.9426 6.35667H34.9452ZM29.001 10.7459C29.001 12.8073 27.3972 14.4929 25.355 14.5868H10.4998C8.45505 14.4929 6.85373 12.8073 6.85373 10.7459C6.85373 8.68457 8.57667 6.90501 10.6873 6.90501H25.1422C27.2933 6.89232 29.0036 8.61857 29.0036 10.7459H29.001Z" fill="black"/>
<path d="M142.644 6.54453L142.563 6.35667H142.51C140.813 2.49037 136.992 0 132.745 0H118.29C112.415 0 107.618 4.79035 107.618 10.6926C107.618 13.5155 108.687 16.1658 110.623 18.1612C112.627 20.2225 115.285 21.3725 118.143 21.4258H133.011C134.212 21.4258 135.469 21.1974 136.645 20.7556V25.2668C136.645 27.3814 134.922 29.1077 132.811 29.1077H110.595V36H132.811C134.562 36 136.204 35.5989 137.686 34.8094C138.527 34.355 139.315 33.8066 140.063 33.0958C142.267 31.0472 143.483 28.2496 143.483 25.2134V10.7332C143.47 9.32684 143.189 7.92299 142.642 6.54453H142.644ZM136.634 10.7459C136.634 12.8073 135.031 14.4929 132.988 14.5868H118.133C116.088 14.4929 114.487 12.8073 114.487 10.7459C114.487 8.68457 116.21 6.90501 118.321 6.90501H132.776C134.914 6.89232 136.637 8.61857 136.637 10.7459H136.634Z" fill="black"/>
<path d="M46.8452 11.6573C46.8452 8.9816 49.0217 6.7984 51.6948 6.7984L67.8574 6.7984V6.67572e-06L51.6948 6.67572e-06C45.2566 6.67572e-06 40.0194 5.24731 40.0194 11.6979V14.4294L46.8579 14.4294V11.6598H46.8452V11.6573Z" fill="black"/>
<path d="M51.6957 28.9907C49.0252 28.9907 46.8462 26.8101 46.8462 24.1318V21.2937L40.0076 21.2937V24.1725C40.0076 30.6231 45.2449 35.8704 51.6831 35.8704H67.8457V28.978H51.6957V28.9907Z" fill="black"/>
<path d="M91.7597 6.81365C94.4302 6.81365 96.6092 8.99432 96.6092 11.6725V14.4574H103.448V11.7259C103.448 5.27526 98.2105 0.0279608 91.7723 0.0279608L74.728 0.0279608V6.82635L91.7597 6.82635V6.81365Z" fill="black"/>
<path d="M96.6058 24.132C96.6058 26.8077 94.4293 28.9909 91.7562 28.9909L74.7118 28.9909V35.8832H91.7562C98.1944 35.8832 103.432 30.6359 103.432 24.1853V21.3065H96.5931V24.1294H96.6058V24.132Z" fill="black"/>
</svg>
